<svg width="20" height="20" viewBox="0 0 20 20" fill="none" xmlns="http://www.w3.org/2000/svg">
<path d="M10 1.25C14.832 1.25 18.75 5.16797 18.75 10C18.75 14.832 14.832 18.75 10 18.75C5.16797 18.75 1.25 14.832 1.25 10C1.25 5.16797 5.16797 1.25 10 1.25ZM10 2.73438C5.98828 2.73438 2.73438 5.98828 2.73438 10C2.73438 14.0117 5.98828 17.2656 10 17.2656C14.0117 17.2656 17.2656 14.0117 17.2656 10C17.2656 5.98828 14.0117 2.73438 10 2.73438ZM10 12.5C10.5178 12.5 10.9375 12.9197 10.9375 13.4375C10.9375 13.9553 10.5178 14.375 10 14.375C9.48223 14.375 9.0625 13.9553 9.0625 13.4375C9.0625 12.9197 9.48223 12.5 10 12.5ZM10.4688 5.625C10.5547 5.625 10.625 5.69531 10.625 5.78125V11.0938C10.625 11.1797 10.5547 11.25 10.4688 11.25H9.53125C9.44531 11.25 9.375 11.1797 9.375 11.0938V5.78125C9.375 5.69531 9.44531 5.625 9.53125 5.625H10.4688Z" fill="#FF4D4F" style="fill:#FF4D4F;fill:color(display-p3 1.0000 0.3020 0.3098);fill-opacity:1;"/>
</svg>
