<svg width="20" height="20" viewBox="0 0 20 20" fill="none" xmlns="http://www.w3.org/2000/svg">
<path fill-rule="evenodd" clip-rule="evenodd" d="M20 10C20 4.47715 15.5228 0 10 0C4.47715 0 0 4.47715 0 10C0 15.5228 4.47715 20 10 20C15.5228 20 20 15.5228 20 10ZM4.45961 12.4826C4.85014 12.1355 5.4833 12.1355 5.87382 12.4826L7.16672 13.6318V4.22227C7.16672 3.73135 7.61443 3.33338 8.16672 3.33338C8.719 3.33338 9.16672 3.73135 9.16672 4.22227V15.7778C9.16672 16.1373 8.92308 16.4614 8.5494 16.599C8.17573 16.7366 7.74561 16.6606 7.45961 16.4063L4.45961 13.7397C4.06909 13.3926 4.06909 12.8297 4.45961 12.4826ZM15.5404 7.51745C15.1499 7.86458 14.5168 7.86458 14.1262 7.51745L12.8333 6.36821V15.7778C12.8333 16.2687 12.3856 16.6667 11.8333 16.6667C11.281 16.6667 10.8333 16.2687 10.8333 15.7778V4.22225C10.8333 3.86273 11.077 3.5386 11.4507 3.40102C11.8243 3.26344 12.2544 3.33949 12.5404 3.59371L15.5404 6.26037C15.931 6.6075 15.931 7.17031 15.5404 7.51745Z" fill="white" style="fill:white;fill-opacity:1;"/>
</svg>
